<?xml version="1.0" encoding="UTF-8" standalone="no"?>
<svg width="24px" height="24px" viewBox="0 0 24 24" version="1.1" xmlns="http://www.w3.org/2000/svg" xmlns:xlink="http://www.w3.org/1999/xlink" xmlns:sketch="http://www.bohemiancoding.com/sketch/ns">
    <!-- Generator: Sketch 3.1.1 (8761) - http://www.bohemiancoding.com/sketch -->
    <title>baking 2</title>
    <desc>Created with Sketch.</desc>
    <defs></defs>
    <g id="Page-1" stroke="none" stroke-width="1" fill="none" fill-rule="evenodd" sketch:type="MSPage">
        <g id="baking-2" sketch:type="MSArtboardGroup">
            <circle id="Oval-8" fill="#78879F" sketch:type="MSShapeGroup" cx="12" cy="12" r="12"></circle>
            <g id="Rectangle-6" sketch:type="MSLayerGroup" transform="translate(11.000000, 13.000000) rotate(-45.000000) translate(-11.000000, -13.000000) translate(8.000000, 3.000000)" fill="#FFFFFF">
                <path d="M2,6.5 L2,19.0000398 C2,19.5523026 2.44386482,20 3,20 C3.55228475,20 4,19.5452911 4,19.0000398 L4,6.50000047 C4,6 4.01146907,5.82963063 4.15674663,5.7688671 C5.23933667,5.31606493 6,4.24686368 6,3 C6,1.34314575 4.65685425,0 3,0 C1.34314575,0 0,1.34314575 0,3 C0,4.2431057 0.756085037,5.30961827 1.83347354,5.76475615 C1.99627528,5.833531 2,6 2,6.5 Z" sketch:type="MSShapeGroup"></path>
            </g>
            <g id="Line-+-Path-16" sketch:type="MSLayerGroup" transform="translate(12.000000, 12.500000) rotate(45.000000) translate(-12.000000, -12.500000) translate(10.000000, 3.000000)" stroke="#78879F" fill="#FFFFFF">
                <path d="M2,12 L4,12 C4,0.5 -8.8817842e-15,1.0658141e-14 -8.8817842e-15,1.0658141e-14 L-8.8817842e-15,7 L5.32907052e-15,18.5 C5.32907052e-15,19.0522847 0.44771525,19.5 1,19.5 C1.55228475,19.5 2,19.0522847 2,18.5 L2,12 Z" id="Path-16" sketch:type="MSShapeGroup"></path>
            </g>
        </g>
    </g>
</svg>