<?xml version="1.0" encoding="utf-8"?>
<!-- Generator: Adobe Illustrator 18.1.0, SVG Export Plug-In . SVG Version: 6.00 Build 0)  -->
<svg version="1.1" id="Calque_1" xmlns:sketch="http://www.bohemiancoding.com/sketch/ns"
	 xmlns="http://www.w3.org/2000/svg" xmlns:xlink="http://www.w3.org/1999/xlink" x="0px" y="0px" viewBox="-495 497 32 32"
	 enable-background="new -495 497 32 32" xml:space="preserve">
<title>oven 2</title>
<desc>Created with Sketch.</desc>
<g id="Page-1" sketch:type="MSPage">
	<g id="oven-2" sketch:type="MSArtboardGroup">
		<g id="four" transform="translate(0.000000, 4.000000)" sketch:type="MSLayerGroup">
			<circle id="Oval-2" sketch:type="MSShapeGroup" fill="#78879F" cx="-468.5" cy="514.5" r="1.5">
			</circle>
			<circle id="Oval-3" sketch:type="MSShapeGroup" fill="#78879F" cx="-468.5" cy="510.5" r="1.5">
			</circle>
			<path id="Oval-4" sketch:type="MSShapeGroup" fill="#78879F" d="M-468.5,507c0.3,0,0.5-0.2,0.5-0.5s-0.2-0.5-0.5-0.5
				s-0.5,0.2-0.5,0.5S-468.8,507-468.5,507z"/>
			<path id="Line-2" sketch:type="MSShapeGroup" fill="#78879F" d="M-475.5,515c0.3,0,0.5-0.2,0.5-0.5s-0.2-0.5-0.5-0.5H-488
				c-0.3,0-0.5,0.2-0.5,0.5s0.2,0.5,0.5,0.5H-475.5z"/>
			<path id="Line" sketch:type="MSShapeGroup" fill="#78879F" d="M-475.5,504c0.3,0,0.5-0.2,0.5-0.5s-0.2-0.5-0.5-0.5H-488
				c-0.3,0-0.5,0.2-0.5,0.5s0.2,0.5,0.5,0.5H-475.5z"/>
			<path id="Rectangle-4" sketch:type="MSShapeGroup" fill="#78879F" d="M-471,504h5v-2h-5V504z M-471,503h5l-1-1v2l1-1H-471l1,1v-2
				L-471,503z"/>
			<path fill="#78879F" d="M-474.8,500.3h-13.7c-1.7,0-3,1.3-3,3v11.3c0,1.7,1.4,3,3,3h13.7c1.7,0,3-1.3,3-3v-11.3
				C-471.8,501.7-473.1,500.3-474.8,500.3z M-473.8,514.7c0,0.6-0.5,1-1,1h-13.7c-0.6,0-1-0.4-1-1v-11.3c0-0.6,0.5-1,1-1h13.7
				c0.6,0,1,0.4,1,1V514.7z"/>
			<path fill="#78879F" d="M-467,497h-24c-2.2,0-4,1.8-4,4v16c0,2.2,1.8,4,4,4h24c2.2,0,4-1.8,4-4v-16C-463,498.8-464.8,497-467,497
				z M-465,517c0,1.1-0.9,2-2,2h-24c-1.1,0-2-0.9-2-2v-16c0-1.1,0.9-2,2-2h24c1.1,0,2,0.9,2,2V517z"/>
		</g>
	</g>
</g>
</svg>
