<?xml version="1.0" encoding="UTF-8" standalone="no"?>
<svg width="24px" height="24px" viewBox="0 0 24 24" version="1.1" xmlns="http://www.w3.org/2000/svg" xmlns:xlink="http://www.w3.org/1999/xlink" xmlns:sketch="http://www.bohemiancoding.com/sketch/ns">
    <!-- Generator: Sketch 3.1.1 (8761) - http://www.bohemiancoding.com/sketch -->
    <title>baking</title>
    <desc>Created with Sketch.</desc>
    <defs></defs>
    <g id="Page-1" stroke="none" stroke-width="1" fill="none" fill-rule="evenodd" sketch:type="MSPage">
        <g id="baking" sketch:type="MSArtboardGroup">
            <path d="M12,24 C18.627417,24 24,18.627417 24,12 C24,5.372583 18.627417,0 12,0 C5.372583,0 0,5.372583 0,12 C0,18.627417 5.372583,24 12,24 Z" id="Oval-8" fill="#78879F" sketch:type="MSShapeGroup"></path>
            <path d="M10.2565157,6.5 C10.2565157,6.5 15.2565158,9 11.7565158,12.5 C8.25651578,16 12.7565158,18 12.7565158,18" id="Path-11" stroke="#FFFFFF" stroke-width="2" stroke-linecap="round" sketch:type="MSShapeGroup"></path>
            <path d="M15.2565157,6.5 C15.2565157,6.5 20.2565158,9 16.7565158,12.5 C13.2565158,16 17.7565158,18 17.7565158,18" id="Path-12" stroke="#FFFFFF" stroke-width="2" stroke-linecap="round" sketch:type="MSShapeGroup"></path>
            <path d="M5.25651575,6.5 C5.25651575,6.5 10.2565158,9 6.75651578,12.5 C3.25651578,16 7.75651575,18 7.75651575,18" id="Path-13" stroke="#FFFFFF" stroke-width="2" stroke-linecap="round" sketch:type="MSShapeGroup"></path>
        </g>
    </g>
</svg>