<?xml version="1.0" encoding="utf-8"?>
<!-- Generator: Adobe Illustrator 17.1.0, SVG Export Plug-In . SVG Version: 6.00 Build 0)  -->
<!DOCTYPE svg PUBLIC "-//W3C//DTD SVG 1.1//EN" "http://www.w3.org/Graphics/SVG/1.1/DTD/svg11.dtd">
<svg version="1.1" xmlns="http://www.w3.org/2000/svg" xmlns:xlink="http://www.w3.org/1999/xlink" x="0px" y="0px"
	 viewBox="14.2 137.5 566.9 566.9" enable-background="new 14.2 137.5 566.9 566.9" xml:space="preserve">
<g id="Calque_1">
	<path fill="#FFFFFF" d="M425.5,523.3c-10.8,10.8-23,21.5-35.3,29.1l55.3,55.3c9.2,9.2,23,9.2,32.2,0s9.2-23,0-32.2L425.5,523.3z"/>
	<path fill="#FFFFFF" d="M279.6,263.8c67.6,0,122.8,55.3,122.8,122.8s-55.3,122.8-122.8,122.8s-122.8-55.3-122.8-122.8
		S212,263.8,279.6,263.8 M279.6,217.8c-93.6,0-168.9,75.3-168.9,168.9s75.2,168.9,168.9,168.9s168.9-75.3,168.9-168.9
		S373.2,217.8,279.6,217.8L279.6,217.8z"/>
</g>
<g id="Calque_2">
</g>
</svg>
