<?xml version="1.0" encoding="utf-8"?>
<!-- Generator: Adobe Illustrator 17.1.0, SVG Export Plug-In . SVG Version: 6.00 Build 0)  -->
<!DOCTYPE svg PUBLIC "-//W3C//DTD SVG 1.1//EN" "http://www.w3.org/Graphics/SVG/1.1/DTD/svg11.dtd">
<svg version="1.1" xmlns="http://www.w3.org/2000/svg" xmlns:xlink="http://www.w3.org/1999/xlink" x="0px" y="0px"
	 viewBox="629.5 137.5 566.9 566.9" enable-background="new 629.5 137.5 566.9 566.9" xml:space="preserve">
<g id="Calque_1">
</g>
<g id="Calque_2">
	<g id="Calque_1_1_">
		<path fill="#FFFFFF" d="M1001.9,581.6L1001.9,581.6c-18.8,0-37.6-7.2-50.5-21.7L789.6,399.7c-2.9-2.9-4.3-7.2-4.3-11.5l14.4-130
			c1.4-7.2,5.8-11.5,13-13l130-14.4c4.3,0,8.6,1.4,11.5,4.3l161.7,161.7c28.9,28.9,27.5,73.7,0,102.6l-63.6,63.6
			C1039.5,574.4,1022.1,581.6,1001.9,581.6z M815.6,383.7l156,156c8.6,8.6,18.8,13,30.3,13l0,0c11.5,0,23.1-4.3,30.3-13l63.6-63.6
			c17.3-17.3,17.3-44.8,0-60.7L941.2,259.5l-112.7,11.5L815.6,383.7z"/>
		<path fill="#FFFFFF" d="M889.2,366.4L889.2,366.4c-8.6,0-18.8-4.3-24.6-10.1c-7.2-7.2-10.1-15.9-10.1-24.6
			c0-8.7,2.9-17.3,10.1-24.6c13-13,36.1-13,49.1,0c7.2,7.2,10.1,15.9,10.1,24.6c0,8.7-2.9,17.3-10.1,24.6
			C906.5,363.5,899.3,366.4,889.2,366.4z M889.2,312.9c-5.8,0-10.1,1.4-14.4,5.8c-4.3,4.3-5.8,8.6-5.8,14.4c0,5.8,2.9,10.1,5.8,14.4
			c4.3,4.3,8.6,5.8,14.4,5.8l0,0c5.8,0,10.1-1.4,14.4-5.8c4.3-4.3,5.8-8.6,5.8-14.4c0-5.8-2.9-10.1-5.8-14.4
			C899.3,314.4,893.6,312.9,889.2,312.9z"/>
		<path fill="#FFFFFF" d="M1055.3,460.3c-1.4,0-4.3,0-5.8-1.4l-69.3-69.3c-2.9-2.9-2.9-7.2,0-10.1s7.2-2.9,10.1,0l69.3,69.3
			c2.9,2.9,2.9,7.2,0,10.1C1059.6,458.8,1056.8,460.3,1055.3,460.3z"/>
		<path fill="#FFFFFF" d="M1009.1,506.5c-1.4,0-4.3,0-5.8-1.4L934,435.7c-2.9-2.9-2.9-7.2,0-10.1c2.9-2.9,7.2-2.9,10.1,0l69.3,69.3
			c2.9,2.9,2.9,7.2,0,10.1C1013.4,505,1010.6,506.5,1009.1,506.5z"/>
		<path fill="#FFFFFF" d="M1032.2,483.4c-1.4,0-4.3,0-5.8-1.4l-46.2-46.3c-2.9-2.9-2.9-7.2,0-10.1c2.9-2.9,7.2-2.9,10.1,0l46.2,46.2
			c2.9,2.9,2.9,7.2,0,10.1C1036.6,482,1033.6,483.4,1032.2,483.4z"/>
		<path fill="#FFFFFF" d="M749.1,619.1c-5.8,0-11.5-4.3-14.4-10.1c-1.4-7.2,2.9-15.9,10.1-17.3c4.3-1.4,39-13,34.7-63.6
			c-2.9-27.5-20.3-56.4-39-86.6c-21.7-33.2-44.8-70.8-50.5-117c-5.8-40.4,11.5-75.1,44.8-92.4c30.3-15.9,69.3-11.5,89.5,8.6
			c5.8,5.8,5.8,14.4,0,20.3c-5.8,5.8-14.4,5.8-20.3,0c-11.5-11.5-37.6-14.4-56.4-4.3c-11.5,10.1-33.2,26-27.5,65
			c5.8,39,26,72.2,46.2,105.5s40.4,63.6,43.3,98.2c5.8,60.7-34.7,88.1-56.4,93.9C752,619.1,750.6,619.1,749.1,619.1z"/>
		<path fill="#FFFFFF" d="M892.1,327.4c-5.8,0-10.1-2.9-13-7.2c0,0-10.1-18.8-26-34.7c-14.4-15.9-28.9-24.6-28.9-24.6
			c-5.8-4.3-8.6-13-5.8-20.3c4.3-7.2,13-10.1,20.3-5.8c1.4,0,18.8,10.1,36.1,30.3c18.8,20.3,28.9,40.4,30.3,40.4
			c4.3,7.2,1.4,15.9-5.8,20.3C896.5,327.4,895,327.4,892.1,327.4z"/>
		<path fill="#FFFFFF" d="M870.4,349c-1.4,0-4.3,0-5.8-1.4c-1.4,0-24.6-11.5-41.9-30.3C804,300,792.4,276.8,791,276.8
			c-2.9-7.2,0-15.9,7.2-20.3c7.2-2.9,15.9,0,18.8,7.2c0,0,10.1,20.3,24.6,34.7s34.7,24.6,34.7,24.6c7.2,2.9,10.1,11.5,7.2,18.8
			C880.5,346.2,876.2,349,870.4,349z"/>
	</g>
</g>
</svg>
