<?xml version="1.0" encoding="utf-8"?>
<!-- Generator: Adobe Illustrator 17.1.0, SVG Export Plug-In . SVG Version: 6.00 Build 0)  -->
<!DOCTYPE svg PUBLIC "-//W3C//DTD SVG 1.1//EN" "http://www.w3.org/Graphics/SVG/1.1/DTD/svg11.dtd">
<svg version="1.1" id="Calque_1" xmlns:sketch="http://www.bohemiancoding.com/sketch/ns"
	 xmlns="http://www.w3.org/2000/svg" xmlns:xlink="http://www.w3.org/1999/xlink" x="0px" y="0px" viewBox="0 335 595.3 617.1"
	 enable-background="new 0 335 595.3 617.1" xml:space="preserve">
<title>Oval 1</title>
<desc>Created with Sketch.</desc>
<g id="Mix" sketch:type="MSPage">
	<g id="Big" transform="translate(-26.000000, -421.000000)" sketch:type="MSLayerGroup">
		<g id="Baniere" transform="translate(0.000000, 348.316834)" sketch:type="MSShapeGroup">
			<g id="Time" transform="translate(26.123763, 72.798750)">
				<path id="Oval-1" fill="#78879F" d="M275.2,662.4c-3.8-3.8-7.6-15.3-7.6-22.8V468.2c0-19.1,15.3-34.3,34.3-34.3
					c19,0,34.3,15.3,34.3,34.3v137.1H401c19.1,0,34.3,15.3,34.3,34.3c0,19.1-19.1,34.3-38.1,34.3H298
					C290.4,673.9,282.8,670.1,275.2,662.4z M298,951.9c163.8,0,297.1-137.1,297.1-308.5S461.9,334.9,298,334.9S0.9,475.9,0.9,643.3
					S134.2,951.9,298,951.9z"/>
			</g>
		</g>
	</g>
</g>
</svg>
